<svg xmlns="http://www.w3.org/2000/svg" width="220.493" height="54.93" viewBox="0 0 220.493 54.93">
  <g id="Group_202" data-name="Group 202" transform="translate(-192.447 -337.582)">
    <path id="Path_467" data-name="Path 467" d="M769.681,411.708H687.745a3.1,3.1,0,0,1-3.148-3.148V385.854a3.1,3.1,0,0,1,3.148-3.148h39.966V366.392h-1.145v15.169H684.6V363.244a3.2,3.2,0,0,1,.906-2.29,2.969,2.969,0,0,1,2.242-.954h78.787a2.974,2.974,0,0,1,2.242.954,3.211,3.211,0,0,1,.906,2.29Zm-43.114-6.392h1.145V389.1h-1.145Z" transform="translate(-421.461 -19.197)" fill="#314c35"/>
    <path id="Path_468" data-name="Path 468" d="M1292.632,360h6.392v48.56a2.97,2.97,0,0,1-.954,2.242,3.2,3.2,0,0,1-2.29.906h-7.537a3.1,3.1,0,0,1-3.148-3.148V360h6.392v45.316h1.145Z" transform="translate(-935.707 -19.197)" fill="#314c35"/>
    <path id="Path_469" data-name="Path 469" d="M1411.5,411.708h-6.392V366.392h-1.145v45.316h-6.392V366.392h-1.145v45.316h-6.392V360h18.317a3.1,3.1,0,0,1,3.148,3.148Z" transform="translate(-1025.572 -19.197)" fill="#314c35"/>
    <path id="Path_470" data-name="Path 470" d="M1573.318,411.708H1550.6a3.1,3.1,0,0,1-3.148-3.148V385.854a3.1,3.1,0,0,1,3.148-3.148h10.359V366.392h-1.145v15.169h-12.362V363.244a3.2,3.2,0,0,1,.906-2.29A2.97,2.97,0,0,1,1550.6,360h19.573a2.974,2.974,0,0,1,2.242.954,3.211,3.211,0,0,1,.906,2.29Zm-13.507-6.392h1.145V389.1h-1.145Z" transform="translate(-1160.378 -19.197)" fill="#314c35"/>
    <path id="Path_471" data-name="Path 471" d="M203.228,411.708H195.6a3.1,3.1,0,0,1-3.148-3.148V390.243h6.392v15.073h1.145V389.1H195.6a2.964,2.964,0,0,1-2.242-.954,3.2,3.2,0,0,1-.906-2.29v-22.61a3.2,3.2,0,0,1,.906-2.29A2.97,2.97,0,0,1,195.6,360h7.632a2.974,2.974,0,0,1,2.242.954,3.21,3.21,0,0,1,.906,2.29v18.317h-6.392V366.392h-1.145v16.314h4.389a3.1,3.1,0,0,1,3.148,3.148V408.56a3.1,3.1,0,0,1-3.148,3.148" transform="translate(0 -19.197)" fill="#314c35"/>
    <path id="Path_472" data-name="Path 472" d="M304.922,360h6.392v48.56a2.97,2.97,0,0,1-.954,2.242,3.2,3.2,0,0,1-2.29.906h-7.537a3.1,3.1,0,0,1-3.148-3.148V360h6.392v45.316h1.145Z" transform="translate(-89.865 -19.197)" fill="#314c35"/>
    <path id="Path_473" data-name="Path 473" d="M441.7,411.708H429.337V366.392h-1.145v45.316H415.83V366.392h-1.145v45.316H402.323V360H438.55a3.1,3.1,0,0,1,3.148,3.148Z" transform="translate(-179.731 -19.197)" fill="#314c35"/>
    <path id="Path_474" data-name="Path 474" d="M1299.024,337.583l-13.929.883v1.188h13.929Z" transform="translate(-935.707)" fill="#314c35"/>
  </g>
</svg>
